<?xml version="1.0" standalone="no"?>
<!DOCTYPE svg PUBLIC "-//W3C//DTD SVG 20010904//EN"
 "http://www.w3.org/TR/2001/REC-SVG-20010904/DTD/svg10.dtd">
<svg version="1.0" xmlns="http://www.w3.org/2000/svg"
 width="18.000000pt" height="18.000000pt" viewBox="0 0 18.000000 18.000000"
 preserveAspectRatio="xMidYMid meet">
<metadata>
Created by potrace 1.16, written by Peter Selinger 2001-2019
</metadata>
<g transform="translate(0.000000,18.000000) scale(0.100000,-0.100000)"
fill="#000000" stroke="none">
<path d="M24 152 c-5 -4 -11 -19 -12 -34 -3 -21 1 -28 14 -28 14 0 15 -3 6
-12 -7 -7 -12 -20 -12 -30 0 -16 9 -18 70 -18 61 0 70 2 70 18 0 10 -5 23 -12
30 -9 9 -9 12 3 12 11 0 14 8 11 29 -3 23 -11 31 -31 35 -35 7 -96 6 -107 -2z"/>
</g>
</svg>
